<?xml version="1.0" encoding="UTF-8" standalone="no"?>
<!-- Created with Inkscape (http://www.inkscape.org/) -->
<svg style="zoom:0.3" xmlns:dc="http://purl.org/dc/elements/1.1/" xmlns:cc="http://creativecommons.org/ns#" xmlns:rdf="http://www.w3.org/1999/02/22-rdf-syntax-ns#" xmlns:svg="http://www.w3.org/2000/svg" xmlns="http://www.w3.org/2000/svg" xmlns:sodipodi="http://sodipodi.sourceforge.net/DTD/sodipodi-0.dtd" xmlns:inkscape="http://www.inkscape.org/namespaces/inkscape" width="210mm" height="210mm" viewBox="0 0 210 210" version="1.1" id="svg8" sodipodi:docname="Zeichnung.svg" inkscape:version="0.92.4 (5da689c313, 2019-01-14)">
  <defs id="defs2"></defs>
  <sodipodi:namedview id="base" pagecolor="#ffffff" bordercolor="#666666" borderopacity="1.0" inkscape:pageopacity="0.0" inkscape:pageshadow="2" inkscape:zoom="0.98994949" inkscape:cx="239.24306" inkscape:cy="764.89848" inkscape:document-units="mm" inkscape:current-layer="layer1" showgrid="false" inkscape:snap-bbox="true" inkscape:snap-nodes="false" inkscape:snap-others="false" inkscape:window-width="1920" inkscape:window-height="1001" inkscape:window-x="-9" inkscape:window-y="-9" inkscape:window-maximized="1"></sodipodi:namedview>
  <metadata id="metadata5">
	<rdf:rdf>
	  <cc:work rdf:about="">
		<dc:format>image/svg+xml</dc:format>
		<dc:type rdf:resource="http://purl.org/dc/dcmitype/StillImage"></dc:type>
		<dc:title></dc:title>
	  </cc:work>
	</rdf:rdf>
  </metadata>
  <g inkscape:label="Ebene 1" inkscape:groupmode="layer" id="layer1">
	<path style="fill:#e81000;stroke-width:0.26726952;fill-opacity:0.99607843" d="M 38.646105,111.04152 C 27.770738,104.71163 21.347189,93.984084 16.355417,73.815312 15.612221,70.8125 15.042465,68.317339 15.089294,68.270513 c 0.121541,-0.121544 44.654109,0.736544 44.780429,0.862864 0.05761,0.0576 0.609015,2.753908 1.225362,5.991789 l 1.12063,5.887056 -1.358501,-0.0047 c -0.747172,-0.0026 -7.608527,-0.178086 -15.247453,-0.390043 -10.381982,-0.288073 -13.936519,-0.308417 -14.077336,-0.08057 -0.480311,0.777158 -0.896898,4.110037 -0.877874,7.02338 0.03134,4.800494 1.166635,8.783878 4.17145,14.636361 1.103172,2.14865 3.955137,6.66037 5.995516,9.48472 0.631248,0.87378 0.214728,0.75127 -2.175412,-0.63989 z" id="path3935" inkscape:connector-curvature="0"></path>
	<path style="fill:#e81000;stroke-width:0.26726952;fill-opacity:0.99607843" d="m 140.21411,169.95251 c -5.19507,-3.66975 -13.10406,-9.68997 -17.08419,-13.00426 C 94.181699,132.84273 74.835638,105.81129 65.263027,76.093245 62.80868,68.473761 60.755355,59.952005 61.326754,59.756827 c 1.151509,-0.393329 27.196434,-8.143972 27.362923,-8.142861 0.114776,7.94e-4 0.236394,2.616665 0.270261,5.813113 0.379666,35.836362 13.031042,68.874911 37.176242,97.084261 3.16088,3.69292 12.06369,12.77883 15.41057,15.7275 1.02695,0.90476 1.74857,1.63526 1.60362,1.62333 -0.14496,-0.0119 -1.46628,-0.87128 -2.93626,-1.90966 z" id="path3937" inkscape:connector-curvature="0"></path>
	<path style="fill:#e81000;stroke-width:0.26726952;fill-opacity:0.99607843" d="m 117.56302,106.96186 -3.94222,-1.4867 v -8.515943 -8.51594 l 0.86862,0.560422 c 0.47774,0.308232 2.34714,1.432552 4.15421,2.49849 l 3.28557,1.938065 -0.17884,7.483546 c -0.0984,4.11595 -0.19376,7.49282 -0.21198,7.50415 -0.0182,0.0113 -1.80714,-0.64841 -3.97536,-1.46609 z" id="path3939" inkscape:connector-curvature="0"></path>
	<path style="fill:#e81000;stroke-width:0.26726952;fill-opacity:0.99607843" d="m 154.44934,171.89041 c -1.43152,-0.0982 -2.65361,-0.23 -2.71577,-0.29297 -0.0621,-0.063 0.47132,-3.02352 1.1855,-6.57901 2.42881,-12.09176 2.76431,-14.68088 2.78147,-21.46514 0.0124,-4.91666 -0.0756,-6.42795 -0.48279,-8.28535 -1.76594,-8.05605 -6.32947,-14.57795 -13.61687,-19.46032 -1.46191,-0.97944 -1.79474,-1.32824 -1.68985,-1.77091 0.0718,-0.30318 0.75966,-3.73843 1.5285,-7.63388 0.76883,-3.89546 1.42199,-7.115692 1.45147,-7.156083 0.10937,-0.149876 11.84616,7.566803 14.29473,9.398463 4.97378,3.72068 8.80691,8.25413 10.6576,12.60479 4.44245,10.44342 2.49665,24.98694 -6.17535,46.1567 l -1.94319,4.74363 -1.33635,-0.0407 c -0.73499,-0.0224 -2.50759,-0.12103 -3.9391,-0.2192 z" id="path3941" inkscape:connector-curvature="0"></path>
	<path style="fill:#0000ff;stroke-width:1.01015258" d="" id="path3945" inkscape:connector-curvature="0" transform="scale(0.26458333)"></path>
	<path style="fill:#175865;stroke-width:0.26726952;fill-opacity:1" d="m 119.85828,140.85347 -4.0524,-3.73727 1.09262,-1.79276 c 2.86683,-4.70387 5.71799,-12.27154 6.96888,-18.4971 1.14674,-5.70726 1.38065,-8.47948 1.36431,-16.16981 -0.0126,-5.916534 -0.12431,-8.03463 -0.62035,-11.759857 -1.23117,-9.245971 -3.18599,-17.561041 -6.44043,-27.395128 -4.36935,-13.203049 -9.98579,-25.814252 -17.61634,-39.555887 -1.754966,-3.160464 -3.171212,-5.759739 -3.147214,-5.776172 0.03058,-0.02096 39.500364,4.363342 39.907364,4.43289 0.0464,0.0079 0.0472,0.01585 1.28706,12.034062 2.07092,20.074379 2.38917,25.331277 2.40276,39.689524 0.0112,11.880453 -0.16016,15.645741 -1.08282,23.786988 -1.86638,16.46824 -5.90867,30.68716 -12.03795,42.34403 -1.94812,3.70499 -3.46116,6.17349 -3.76933,6.14957 -0.11207,-0.009 -2.02735,-1.69758 -4.25616,-3.75308 z" id="path3943" inkscape:connector-curvature="0"></path>
	<path style="fill:#175865;stroke-width:0.26726952;fill-opacity:1" d="m 82.903088,167.4801 c -3.201879,-15.35884 -4.531934,-32.49746 -3.774977,-48.64299 0.179025,-3.81851 0.386239,-7.04103 0.460476,-7.16115 0.07423,-0.12011 1.741104,2.15321 3.704153,5.05183 3.537262,5.2231 3.566039,5.27776 3.217574,6.11175 -0.54067,1.29401 -1.454332,5.41475 -1.878316,8.47146 -0.828136,5.97047 -1.020154,11.62701 -0.885087,26.07349 0.07318,7.82765 0.107288,14.2321 0.07579,14.2321 -0.0315,0 -0.445326,-1.86142 -0.919613,-4.13649 z" id="path3947" inkscape:connector-curvature="0"></path>
	<path style="fill:#175865;stroke-width:0.26726952;fill-opacity:1" d="m 84.848922,47.255969 -3.5149,-1.093023 0.597252,-1.351047 c 0.328488,-0.743075 2.923315,-6.642981 5.766281,-13.110903 2.842967,-6.467925 5.238351,-11.838059 5.323076,-11.933637 0.150627,-0.169923 7.536469,8.289404 7.721109,8.843322 0.0954,0.286068 -12.000827,19.811132 -12.24428,19.764118 -0.0735,-0.01418 -1.715342,-0.517665 -3.648538,-1.11883 z" id="path3949" inkscape:connector-curvature="0"></path>
	<path style="fill:#175865;stroke-width:0.26726952;fill-opacity:1" d="m 82.639802,179.2615 c 0.06125,-0.0583 1.614754,-0.97815 3.452233,-2.04422 5.516824,-3.20074 8.042825,-4.99093 11.626222,-8.23958 4.810183,-4.36081 8.582983,-9.94977 10.933193,-16.19619 l 0.84465,-2.24494 3.59915,3.23482 c 1.97953,1.77916 3.63348,3.37147 3.67544,3.53848 0.0934,0.37169 -3.63818,5.6476 -5.98204,8.45774 -2.48477,2.97908 -6.71796,6.90564 -8.61089,7.98714 -0.9005,0.51449 -1.64085,1.03634 -1.64522,1.15967 -0.004,0.12332 2.00659,0.12982 4.46881,0.0144 6.59018,-0.30882 19.52365,-0.23328 23.03705,0.13454 5.87262,0.61483 11.61115,2.0397 14.71477,3.65368 l 1.20272,0.62544 -30.71373,0.0125 c -16.892545,0.007 -30.663607,-0.0352 -30.602358,-0.0935 z" id="path3951" inkscape:connector-curvature="0"></path>
	<path style="fill:#175865;fill-opacity:1;stroke-width:1.01015258;stroke-opacity:1" d="m 636.48015,411.14528 c 15.17675,-22.91575 25.78346,-46.91428 28.23999,-63.89522 2.07126,-14.31776 0.62283,-37.26278 -2.55534,-40.47991 -1.24627,-1.26155 -8.96204,-1.28722 -58.13935,-0.19344 -31.1863,0.69363 -56.89958,1.06393 -57.14061,0.8229 -0.50263,-0.50263 1.26359,-41.03436 1.81138,-41.56815 0.42166,-0.41088 97.2081,-3.28162 143.04467,-4.24278 27.27018,-0.57183 31.56727,-0.46166 31.56727,0.80933 0,2.5102 -7.82577,32.74426 -12.13103,46.86702 -7.98119,26.18113 -18.91531,50.99083 -30.03731,68.15516 -7.84246,12.10311 -31.22525,35.17963 -42.1794,41.62695 -4.44467,2.61601 -8.91124,5.06439 -9.92572,5.44083 -1.13612,0.42157 1.72329,-4.70267 7.44545,-13.34269 z" id="path4836" inkscape:connector-curvature="0" transform="scale(0.26458333)" class=""></path>
	<path style="fill:#175865;fill-opacity:0.75294118;stroke:#000000;stroke-width:1.01015258;stroke-opacity:1" d="" id="path4838" inkscape:connector-curvature="0" transform="scale(0.26458333)"></path>
  </g>
</svg>
